#!OML:ASF H:\Terrain\Patient Classification 1\Walking\liu\liu.ASF
:FULLY-SPECIFIED
:DEGREES
485
root 10.880600 17.286699 31.613800 4.312640 4.298630 4.662650
lowerback -9.127350 -5.308941 -5.949262
upperback 2.733027 -6.555571 1.592107
thorax 8.811452 -3.534696 3.990305
lowerneck -26.399891 -2.826241 -10.715848
upperneck 25.585011 -3.221548 11.388630
head 13.112660 -0.913659 5.567375
rclavicle 0.000000 0.000000
rhumerus -49.817131 9.531071 -94.065842
rradius 41.397949
rwrist -21.774059
rhand -35.880020 -24.234430
rfingers 7.837522
rthumb -6.430182 -57.123661
lclavicle 0.000000 0.000000
lhumerus -6.295740 -23.920052 90.831627
lradius 36.216183
lwrist 9.543447
lhand -18.790859 -28.378571
lfingers 7.837522
lthumb 10.071159 4.380772
rfemur -44.114071 9.714849 11.103070
rtibia 32.857220
rfoot -24.481930 -7.288325
rtoes -17.311470
lfemur 12.912570 2.653090 -32.512260
ltibia 0.000000
lfoot -15.137760 4.970075
ltoes 2.838297
486
root 10.873700 17.275101 31.756500 4.394800 4.281010 4.506040
lowerback -9.166774 -5.245064 -5.652416
upperback 2.640209 -6.499515 1.567742
thorax 8.691067 -3.487792 3.811291
lowerneck -26.303751 -2.556367 -10.415395
upperneck 25.837460 -2.973762 11.373560
head 13.155451 -0.780416 5.561523
rclavicle 0.000000 -0.000000
rhumerus -49.984661 9.094327 -93.881042
rradius 41.063004
rwrist -21.611700
rhand -34.323082 -25.878820
rfingers 7.837522
rthumb -4.926911 -58.804684
lclavicle 0.000000 -0.000000
lhumerus -6.743463 -24.528681 91.079346
lradius 36.595901
lwrist 9.468206
lhand -18.690432 -28.535650
lfingers 7.837522
lthumb 10.168137 4.219446
rfemur -44.806412 10.684267 10.794510
rtibia 32.294128
rfoot -25.222450 -7.639335
rtoes -18.137131
lfemur 13.382490 2.650879 -32.229561
ltibia 0.000000
lfoot -15.565110 4.984309
ltoes 3.179484
487
root 10.868400 17.258400 31.906300 4.422510 4.232930 4.848710
lowerback -7.193142 -5.208731 -5.763945
upperback 0.953066 -6.551523 1.481799
thorax 5.774175 -3.430878 4.011304
lowerneck -25.020052 -2.613743 -10.556272
upperneck 26.880810 -3.098161 11.043561
head 13.319460 -0.929385 5.465384
rclavicle 0.000000 -0.000000
rhumerus -53.210522 9.316373 -94.114899
rradius 41.254402
rwrist -21.721479
rhand -34.181179 -25.683790
rfingers 7.837522
rthumb -4.789851 -58.612511
lclavicle 0.000000 -0.000000
lhumerus -10.320134 -25.070541 92.670822
lradius 37.015663
lwrist 8.257139
lhand -19.992500 -28.845633
lfingers 7.837522
lthumb 8.911541 3.961573
rfemur -45.245640 11.639760 9.840105
rtibia 31.661852
rfoot -26.102230 -7.823585
rtoes -18.108091
lfemur 14.007401 2.665916 -32.564182
ltibia 0.000000
lfoot -16.030960 5.083727
ltoes 2.177153
488
root 10.857000 17.235901 32.042400 4.577570 4.181750 5.229140
lowerback -6.086278 -5.211503 -6.043774
upperback -0.061483 -6.604576 1.364297
thorax 4.110271 -3.405963 4.178262
lowerneck -23.836559 -2.394073 -10.661849
upperneck 27.130072 -2.892142 11.105381
head 13.157540 -0.867325 5.537730
rclavicle -0.000000 0.000000
rhumerus -55.042355 9.391041 -94.327530
rradius 41.105350
rwrist -21.705641
rhand -34.426811 -24.803572
rfingers 7.837522
rthumb -5.027022 -57.727341
lclavicle -0.000000 0.000000
lhumerus -12.253120 -24.794001 93.451050
lradius 37.786102
lwrist 8.914906
lhand -18.421921 -28.855751
lfingers 7.837522
lthumb 10.427187 3.887708
rfemur -45.867802 12.669250 8.710658
rtibia 30.979521
rfoot -26.768831 -8.152584
rtoes -17.873240
lfemur 14.434310 2.653596 -32.922779
ltibia -0.000000
lfoot -16.292650 5.268714
ltoes 1.598003
